<svg xmlns="http://www.w3.org/2000/svg" style="display: none;" id="icons">
  <defs>
    <symbol id="codepen" fill="none" viewBox="0 0 24 24">
      <path fill="#fff" fill-rule="evenodd"
        d="M11.425.174a1.034 1.034 0 0 1 1.15 0L23.54 7.506c.287.192.459.514.459.86v7.268c0 .346-.172.668-.46.86l-10.965 7.332a1.034 1.034 0 0 1-1.15 0L.46 16.494a1.034 1.034 0 0 1-.459-.86V8.366c0-.346.172-.668.46-.86L11.424.174ZM2.068 13.71v-3.42L4.646 12l-2.578 1.709Zm.832 1.93 8.066 5.392V16.19l-4.449-2.95L2.9 15.639ZM8.388 12 12 14.394 15.612 12 12 9.606 8.388 12Zm9.095 1.24-4.449 2.95v4.841l8.066-5.393-3.617-2.397Zm4.45.469L19.354 12l2.577-1.709v3.418Zm-4.45-2.95L13.034 7.81V2.97L21.1 8.362l-3.617 2.397ZM10.966 7.81V2.97L2.9 8.362l3.617 2.397 4.45-2.949Z"
        class="Union" clip-rule="evenodd" />
    </symbol>
    <symbol id="lottie" fill="none" viewBox="0 0 24 24">
      <path fill="#00DDB3"
        d="M11.447 10.873c1.054-2.03 2.363-4.55 5.903-4.55a1.016 1.016 0 0 1-.004 2.033c-2.15 0-2.985 1.31-4.103 3.463l-.69 1.299-.003.007c-1.054 2.03-2.362 4.553-5.904 4.553a1.018 1.018 0 1 1 0-2.034c2.15 0 2.984-1.309 4.102-3.463l.694-1.299.005-.009Z" />
      <path fill="#00DDB3" fill-rule="evenodd"
        d="M17.08 0H6.92A6.92 6.92 0 0 0 0 6.92v10.16A6.92 6.92 0 0 0 6.92 24h10.16A6.92 6.92 0 0 0 24 17.08V6.92A6.92 6.92 0 0 0 17.08 0Zm0 1.714H6.92A5.205 5.205 0 0 0 1.713 6.92v10.16a5.205 5.205 0 0 0 5.206 5.206h10.16a5.205 5.205 0 0 0 5.206-5.206V6.92a5.205 5.205 0 0 0-5.206-5.206Z"
        clip-rule="evenodd" />
    </symbol>
    <symbol id="jsfiddle" fill="none" viewBox="0 0 24 24">
      <path fill="#3A6CFF"
        d="M5.664 13.47c0-1.559 1.347-2.766 2.936-2.766.84 0 1.593.444 2.23.962.527.43 1.03.958 1.481 1.431l.282.295a.472.472 0 0 1 .088.128c.353.366.71.722 1.082 1.025.585.476 1.125.75 1.637.75 1.135 0 1.997-.848 1.997-1.825 0-.978-.862-1.827-1.997-1.827-.925 0-1.396.51-1.748.89l-.08.087a.47.47 0 1 1-.684-.644l.078-.085c.358-.392 1.085-1.187 2.434-1.187 1.59 0 2.936 1.207 2.936 2.766 0 1.558-1.347 2.765-2.936 2.765-.84 0-1.593-.443-2.23-.962-.527-.43-1.03-.958-1.481-1.431l-.282-.295a.47.47 0 0 1-.088-.128c-.353-.366-.71-.722-1.082-1.024-.585-.477-1.125-.752-1.637-.752-1.135 0-1.997.85-1.997 1.827s.862 1.826 1.997 1.826c.925 0 1.396-.51 1.748-.89l.08-.086a.47.47 0 0 1 .684.643l-.078.085c-.359.392-1.085 1.187-2.434 1.187-1.59 0-2.936-1.207-2.936-2.765Z" />
      <path fill="#3A6CFF" fill-rule="evenodd"
        d="M13.884 3.052A7.294 7.294 0 0 0 7.55 6.716a3.608 3.608 0 0 0-1.75-.452c-1.997 0-3.621 1.608-3.621 3.6 0 .245.025.486.072.72a5.045 5.045 0 0 0-2.198 4.16c0 2.775 2.243 5.02 5.016 5.062h13.887c2.756.016 4.993-2.204 4.993-4.945 0-1.948-1.13-3.63-2.768-4.442a2.13 2.13 0 0 0 .003-.113c0-4.009-3.27-7.254-7.299-7.254ZM8.148 7.594a6.357 6.357 0 0 1 5.736-3.603c3.516 0 6.36 2.83 6.36 6.315a3.8 3.8 0 0 1-.012.256l-.007.125a.47.47 0 0 0 .289.46 4.023 4.023 0 0 1 2.495 3.714 4.014 4.014 0 0 1-4.05 4.006H5.08C2.812 18.83.991 16.997.991 14.745c0-1.507.817-2.823 2.038-3.545a.47.47 0 0 0 .209-.546 2.62 2.62 0 0 1-.121-.79 2.67 2.67 0 0 1 2.681-2.661c.617 0 1.185.21 1.64.56a.47.47 0 0 0 .71-.17Z"
        clip-rule="evenodd" />
    </symbol>
    <symbol id="arrow-left" fill="currentColor" viewBox="0 0 24 24">
      <path d="M7.825 13L13.425 18.6L12 20L4 12L12 4L13.425 5.4L7.825 11H20V13H7.825Z" fill="currentColor" />
    </symbol>
    <symbol id="pastebin" viewBox="0 0 24 24" fill="none">
      <path
        d="M17.955 19.5825L9.18377 22.8038C8.72971 22.9696 8.22843 22.9486 7.7898 22.7455C7.35116 22.5423 7.01097 22.1736 6.84377 21.72L1.75877 7.875C1.59294 7.42094 1.6139 6.91966 1.81705 6.48103C2.0202 6.0424 2.38896 5.7022 2.84252 5.535L15.375 0.933753C15.8291 0.767931 16.3304 0.788891 16.769 0.992039C17.2076 1.19519 17.5478 1.56395 17.715 2.0175L21.5213 12.4013C22.125 13.9388 19.875 18.8813 17.955 19.5825Z"
        fill="white" />
      <path
        d="M14.9174 20.9475L9.26616 23.025C8.7557 23.2059 8.19462 23.1791 7.70369 22.9505C7.21275 22.7219 6.83121 22.3096 6.64116 21.8025L1.53741 7.9575C1.35551 7.44708 1.38178 6.88559 1.61054 6.39439C1.8393 5.90318 2.25217 5.52174 2.75991 5.3325L15.2849 0.712496C15.7977 0.525858 16.3635 0.549656 16.8588 0.778694C17.3541 1.00773 17.7387 1.42341 17.9287 1.935L21.7499 12.3225C22.0387 13.0462 21.7837 14.445 21.0637 16.0725C20.4149 17.5275 19.2337 19.38 18.0637 19.8225L14.9174 20.9475ZM2.92491 5.75625C2.72907 5.82778 2.54925 5.93721 2.39575 6.0783C2.24224 6.21938 2.11805 6.38934 2.03028 6.57846C1.94251 6.76758 1.89288 6.97215 1.88424 7.18047C1.8756 7.38878 1.90811 7.59676 1.97991 7.7925L7.06491 21.6375C7.21181 22.032 7.50852 22.3526 7.89053 22.5296C8.27254 22.7066 8.70896 22.7256 9.10491 22.5825L17.8724 19.3612C18.7274 19.0462 19.8299 17.64 20.6249 15.8662C21.2737 14.4112 21.5399 13.0875 21.3037 12.4912L17.4862 2.1C17.3409 1.7042 17.0444 1.38231 16.6618 1.20509C16.2793 1.02788 15.842 1.00986 15.4462 1.155L2.92491 5.75625Z"
        fill="black" />
      <path
        d="M5.80498 6.75C6.18346 7.11495 6.4623 7.57064 6.61498 8.07375C6.82558 8.55316 6.90703 9.07935 6.85123 9.6C6.81551 9.81257 6.71947 10.0104 6.57454 10.1699C6.42961 10.3295 6.2419 10.4441 6.03373 10.5C5.84388 10.5901 5.63259 10.6252 5.42382 10.6013C5.21504 10.5774 5.01712 10.4956 4.85248 10.365C4.47391 10.0031 4.19495 9.54979 4.04248 9.04875C3.83104 8.56161 3.7484 8.02829 3.80248 7.5C3.84339 7.29289 3.94175 7.10146 4.08631 6.94762C4.23088 6.79377 4.41582 6.6837 4.61998 6.63C4.80894 6.5371 5.02018 6.4991 5.22967 6.52031C5.43916 6.54153 5.63848 6.62111 5.80498 6.75ZM5.24998 9.70125C5.3067 9.79258 5.394 9.86081 5.49633 9.89378C5.59866 9.92674 5.70937 9.9223 5.80873 9.88125C5.91373 9.84981 6.00348 9.78083 6.06089 9.68747C6.11829 9.5941 6.13933 9.48288 6.11998 9.375C6.07947 9.02461 5.99115 8.68142 5.85748 8.355C5.74818 8.01296 5.59032 7.6884 5.38873 7.39125C5.33227 7.30283 5.246 7.23758 5.14556 7.2073C5.04511 7.17703 4.93715 7.18375 4.84123 7.22625C4.74022 7.25656 4.65335 7.32195 4.59628 7.41065C4.53921 7.49934 4.5157 7.6055 4.52998 7.71C4.5649 8.06584 4.65209 8.41459 4.78873 8.745C4.89636 9.08401 5.05166 9.40599 5.24998 9.70125Z"
        fill="#54585B" />
      <path
        d="M9.45748 5.41874C9.83704 5.7858 10.116 6.24419 10.2675 6.74999C10.475 7.22895 10.5551 7.75343 10.5 8.27249C10.4584 8.47892 10.3598 8.66954 10.2153 8.82268C10.0708 8.97582 9.88616 9.08533 9.68248 9.13874C9.49275 9.22754 9.28201 9.26159 9.07397 9.23708C8.86593 9.21256 8.66887 9.13045 8.50498 8.99999C8.12731 8.63589 7.84855 8.18162 7.69498 7.67999C7.48577 7.1975 7.40316 6.66959 7.45498 6.14624C7.49652 5.93982 7.59516 5.74919 7.73969 5.59605C7.88421 5.44291 8.0688 5.33341 8.27248 5.27999C8.46314 5.18968 8.67535 5.15481 8.88489 5.17934C9.09442 5.20388 9.29284 5.28683 9.45748 5.41874ZM8.90998 8.35874C8.96887 8.44732 9.05592 8.51343 9.15705 8.54638C9.25818 8.57934 9.36747 8.57721 9.46724 8.54034C9.56701 8.50347 9.65142 8.43401 9.70681 8.34321C9.76221 8.25241 9.78534 8.14558 9.77248 8.03999C9.73196 7.6896 9.64364 7.34641 9.50998 7.01999C9.40068 6.67796 9.24282 6.35339 9.04123 6.05624C8.97997 5.97277 8.89317 5.91154 8.79399 5.88182C8.6948 5.85211 8.58864 5.85552 8.49157 5.89155C8.3945 5.92758 8.31182 5.99426 8.25604 6.0815C8.20027 6.16873 8.17445 6.27177 8.18248 6.37499C8.2173 6.73206 8.30449 7.08206 8.44123 7.41374C8.5525 7.74912 8.71029 8.06723 8.90998 8.35874Z"
        fill="#54585B" />
      <path
        d="M13.2975 6.97125L12.2137 4.0275L11.67 4.23C11.6846 4.2761 11.6921 4.32414 11.6925 4.3725C11.7011 4.46941 11.6869 4.56699 11.6512 4.6575C11.5977 4.77847 11.5088 4.88043 11.3962 4.95C11.2624 5.02613 11.1233 5.09255 10.98 5.14875L11.1412 5.595L11.925 5.30625L12.6262 7.21875L11.7825 7.52625L12 8.1L14.2125 7.28625L14.0025 6.7125L13.2975 6.97125Z"
        fill="#54585B" />
      <path
        d="M16.4213 5.82376L15.3413 2.88L14.7938 3.07875C14.8074 3.12521 14.8162 3.17297 14.82 3.22126C14.8328 3.3364 14.8111 3.45276 14.7577 3.55557C14.7043 3.65838 14.6216 3.74302 14.52 3.79876C14.3865 3.87654 14.2474 3.94423 14.1038 4.00126L14.2688 4.44376L15.0488 4.15876L15.75 6.06751L14.91 6.37501L15.12 6.94876L17.3325 6.13501L17.1225 5.56126L16.4213 5.82376Z"
        fill="#54585B" />
      <path
        d="M7.56384 14.6775L6.48384 11.7337L5.93634 11.9325C5.95001 11.979 5.95881 12.0267 5.96259 12.075C5.97173 12.1719 5.95759 12.2696 5.92134 12.36C5.8699 12.4823 5.7805 12.5849 5.66634 12.6525C5.53102 12.7293 5.39071 12.797 5.24634 12.855L5.41134 13.2975L6.19134 13.0125L6.89634 14.9212L6.05259 15.2325L6.26259 15.8062L8.47509 15L8.25009 14.4187L7.56384 14.6775Z"
        fill="#54585B" />
      <path
        d="M10.6988 10.5637C11.0747 10.9307 11.3531 11.3857 11.5088 11.8875C11.715 12.3682 11.7962 12.8932 11.745 13.4137C11.7041 13.6209 11.6058 13.8123 11.4612 13.9661C11.3166 14.12 11.1317 14.23 10.9275 14.2837C10.7381 14.3731 10.5276 14.4077 10.3195 14.3839C10.1115 14.36 9.91428 14.2786 9.75002 14.1487C9.37403 13.7848 9.0955 13.3322 8.94002 12.8325C8.73351 12.3493 8.65225 11.8217 8.70377 11.2987C8.74467 11.0916 8.84303 10.9002 8.9876 10.7464C9.13216 10.5925 9.3171 10.4825 9.52127 10.4287C9.71066 10.3394 9.92121 10.3048 10.1292 10.3286C10.3373 10.3525 10.5345 10.4339 10.6988 10.5637ZM10.1513 13.5C10.2109 13.5865 10.2978 13.6507 10.398 13.6823C10.4982 13.7139 10.6061 13.7113 10.7046 13.6747C10.8032 13.6381 10.8867 13.5697 10.942 13.4804C10.9973 13.391 11.0212 13.2857 11.01 13.1812C10.9711 12.831 10.8841 12.4877 10.7513 12.1612C10.6403 11.8199 10.4826 11.4955 10.2825 11.1975C10.2261 11.1132 10.1422 11.0511 10.0451 11.0217C9.94801 10.9923 9.84373 10.9974 9.75002 11.0362C9.64913 11.0672 9.56231 11.1325 9.50473 11.221C9.44715 11.3094 9.42248 11.4152 9.43502 11.52C9.47305 11.8757 9.56144 12.2242 9.69752 12.555C9.80378 12.8897 9.95652 13.2078 10.1513 13.5Z"
        fill="#54585B" />
      <path
        d="M14.3476 9.225C14.726 9.58848 15.0049 10.043 15.1576 10.545C15.3658 11.0264 15.4472 11.5532 15.3938 12.075C15.3523 12.2814 15.2536 12.4721 15.1091 12.6252C14.9646 12.7783 14.78 12.8878 14.5763 12.9413C14.3868 13.0318 14.1757 13.0675 13.9669 13.0443C13.7582 13.0212 13.5601 12.94 13.3951 12.81C13.0158 12.4465 12.7356 11.9922 12.5813 11.49C12.375 11.008 12.2937 10.4818 12.3451 9.96C12.386 9.75289 12.4843 9.56147 12.6289 9.40762C12.7734 9.25377 12.9584 9.1437 13.1626 9.09C13.3529 8.99918 13.5649 8.96368 13.7744 8.98755C13.9839 9.01142 14.1825 9.0937 14.3476 9.225ZM13.8001 12.1613C13.8562 12.2532 13.9432 12.3223 14.0456 12.3559C14.148 12.3896 14.259 12.3857 14.3588 12.345C14.4605 12.3116 14.5469 12.243 14.6026 12.1516C14.6582 12.0602 14.6795 11.9519 14.6626 11.8463C14.6199 11.4951 14.5316 11.1509 14.4001 10.8225C14.2909 10.4816 14.133 10.1583 13.9313 9.8625C13.8744 9.77459 13.7883 9.70952 13.6882 9.67866C13.5881 9.64781 13.4804 9.65315 13.3838 9.69375C13.2836 9.72537 13.1976 9.79105 13.1408 9.8794C13.0839 9.96776 13.0598 10.0732 13.0726 10.1775C13.1069 10.5346 13.1941 10.8847 13.3313 11.2163C13.4426 11.5516 13.6004 11.8697 13.8001 12.1613Z"
        fill="#54585B" />
      <path
        d="M18.0676 7.875C18.4461 8.24056 18.7261 8.69593 18.8813 9.19875C19.087 9.67308 19.1708 10.1913 19.1251 10.7062C19.0842 10.9134 18.9858 11.1048 18.8413 11.2586C18.6967 11.4125 18.5118 11.5225 18.3076 11.5762C18.1173 11.6671 17.9053 11.7026 17.6957 11.6787C17.4862 11.6548 17.2876 11.5726 17.1226 11.4412C16.7413 11.0802 16.4597 10.6268 16.3051 10.125C16.0989 9.64167 16.0177 9.11422 16.0689 8.59125C16.1089 8.38553 16.2055 8.19508 16.348 8.04136C16.4905 7.88764 16.673 7.77677 16.8751 7.72125C17.0681 7.63145 17.2825 7.59823 17.4936 7.62545C17.7047 7.65266 17.9037 7.73919 18.0676 7.875ZM17.5201 10.815C17.5768 10.9063 17.6641 10.9746 17.7664 11.0075C17.8688 11.0405 17.9795 11.0361 18.0789 10.995C18.1834 10.9605 18.2714 10.8885 18.3261 10.793C18.3808 10.6975 18.3982 10.5851 18.3751 10.4775C18.3362 10.1272 18.2491 9.78397 18.1164 9.4575C18.0054 9.11612 17.8477 8.79178 17.6476 8.49375C17.5911 8.40533 17.5049 8.34008 17.4044 8.30981C17.304 8.27953 17.196 8.28625 17.1001 8.32875C16.9992 8.35965 16.9124 8.42503 16.8548 8.51346C16.7972 8.60188 16.7726 8.70773 16.7851 8.8125C16.8236 9.16811 16.912 9.51653 17.0476 9.8475C17.1594 10.1845 17.3185 10.504 17.5201 10.7962V10.815Z"
        fill="#54585B" />
      <path
        d="M12.5438 15.5925C12.9223 15.956 13.2012 16.4105 13.3538 16.9125C13.5639 17.3934 13.6453 17.9206 13.5901 18.4425C13.5485 18.6489 13.4499 18.8395 13.3054 18.9927C13.1609 19.1458 12.9763 19.2553 12.7726 19.3087C12.5831 19.3993 12.372 19.435 12.1632 19.4118C11.9544 19.3886 11.7563 19.3075 11.5913 19.1775C11.2121 18.8147 10.9331 18.3599 10.7813 17.8575C10.5723 17.3763 10.4897 16.8496 10.5413 16.3275C10.5822 16.1204 10.6806 15.929 10.8252 15.7751C10.9697 15.6213 11.1547 15.5112 11.3588 15.4575C11.5492 15.3667 11.7612 15.3312 11.9707 15.355C12.1802 15.3789 12.3788 15.4612 12.5438 15.5925ZM12.0001 18.5287C12.0562 18.6207 12.1433 18.6897 12.2457 18.7234C12.348 18.7571 12.4591 18.7532 12.5588 18.7125C12.6605 18.6791 12.7469 18.6105 12.8026 18.5191C12.8583 18.4277 12.8795 18.3194 12.8626 18.2137C12.8217 17.8622 12.7334 17.5178 12.6001 17.19C12.4909 16.8491 12.333 16.5257 12.1313 16.23C12.0744 16.1421 11.9883 16.077 11.8882 16.0462C11.7881 16.0153 11.6804 16.0206 11.5838 16.0612C11.4836 16.0929 11.3977 16.1585 11.3408 16.2469C11.284 16.3352 11.2598 16.4407 11.2726 16.545C11.307 16.9021 11.3942 17.2522 11.5313 17.5837C11.6442 17.9185 11.8019 18.2364 12.0001 18.5287Z"
        fill="#54585B" />
      <path
        d="M9.62625 19.6237L8.54625 16.68L8.0025 16.875C8.01308 16.9207 8.0206 16.967 8.025 17.0137C8.03389 17.1119 8.01976 17.2108 7.98375 17.3025C7.93018 17.4235 7.84129 17.5254 7.72875 17.595C7.59413 17.6696 7.45513 17.7359 7.3125 17.7937L7.47375 18.24L8.25 17.9587L8.95875 19.875L8.115 20.1862L8.325 20.76L10.5375 19.9462L10.3275 19.3725L9.62625 19.6237Z"
        fill="#54585B" />
      <path
        d="M16.4025 17.1338L15.3225 14.19L14.7787 14.3925C14.7893 14.4395 14.7968 14.4871 14.8012 14.535C14.8098 14.6319 14.7957 14.7295 14.76 14.82C14.7064 14.941 14.6175 15.0429 14.505 15.1125C14.3702 15.1892 14.2298 15.2557 14.085 15.3113L14.25 15.75L15.0337 15.4613L15.75 17.3813L14.9062 17.6888L15.1162 18.2625L17.3287 17.4525L17.1037 16.875L16.4025 17.1338Z"
        fill="#54585B" />
      <path
        d="M15.2737 0.697504L2.74872 5.295C2.23713 5.48493 1.82145 5.86953 1.59241 6.36484C1.36338 6.86015 1.33958 7.42596 1.52622 7.93875L6.61122 21.7838C6.80033 22.296 7.18482 22.7123 7.68041 22.9415C8.17599 23.1706 8.74223 23.1939 9.25497 23.0063L14.9062 20.9325L18.0262 19.785C19.215 19.3463 20.3962 17.4938 21.0262 16.035C21.7462 14.4188 22.005 13.035 21.7162 12.285L17.9175 1.92C17.8242 1.66607 17.6819 1.43301 17.4985 1.23412C17.3152 1.03523 17.0945 0.874428 16.8489 0.760895C16.6034 0.647362 16.3379 0.583328 16.0676 0.572451C15.7973 0.561574 15.5276 0.604068 15.2737 0.697504ZM9.09372 22.5638C8.69836 22.7091 8.26149 22.6916 7.87901 22.5151C7.49654 22.3386 7.19972 22.0176 7.05372 21.6225L1.96872 7.7775C1.82339 7.38215 1.84088 6.94528 2.01736 6.5628C2.19383 6.18033 2.51486 5.88351 2.90997 5.7375L15.435 1.125C15.6317 1.05342 15.8406 1.02138 16.0497 1.03073C16.2588 1.04007 16.464 1.09062 16.6536 1.17946C16.8431 1.26831 17.0132 1.3937 17.1542 1.54845C17.2951 1.70321 17.4042 1.88427 17.475 2.08125L21.0975 11.9475H21.045C21.045 11.9475 20.8012 13.2413 19.1025 13.3688C18.6522 13.422 18.2212 13.5822 17.8454 13.836C17.4697 14.0897 17.1601 14.4297 16.9425 14.8275C16.7344 15.2191 16.636 15.6597 16.6578 16.1027C16.6796 16.5456 16.8207 16.9744 17.0662 17.3438C17.6512 18.2063 17.31 19.2975 17.2012 19.5938L9.09372 22.5638ZM20.625 15.8475C19.83 17.625 18.7275 19.0275 17.8725 19.3425L17.7712 19.38C17.8855 18.9952 17.9174 18.5907 17.8651 18.1927C17.8128 17.7947 17.6773 17.4122 17.4675 17.07C17.2702 16.7733 17.1569 16.4287 17.1398 16.0728C17.1226 15.7169 17.2022 15.3631 17.37 15.0488C17.5471 14.7231 17.7981 14.4435 18.1029 14.2325C18.4077 14.0215 18.7578 13.8849 19.125 13.8338C19.5686 13.8299 20.0033 13.7085 20.3848 13.4819C20.7662 13.2553 21.0807 12.9316 21.2962 12.5438C21.5062 13.1663 21.24 14.445 20.625 15.8475Z"
        fill="#616973" />
      <path
        d="M20.6251 15.8812C19.8338 17.655 18.7276 19.0612 17.8763 19.3725L17.7713 19.4137C17.8867 19.0291 17.9194 18.6244 17.867 18.2262C17.8146 17.828 17.6785 17.4455 17.4676 17.1037C17.2711 16.806 17.1584 16.4609 17.1412 16.1046C17.1241 15.7483 17.2031 15.394 17.3701 15.0787C17.3701 15.0787 17.9738 13.9537 19.1476 13.8637C19.5919 13.8606 20.0274 13.7395 20.4095 13.5128C20.7916 13.2862 21.1067 12.9621 21.3226 12.5737C21.5138 13.1962 21.2476 14.475 20.6251 15.8812Z"
        fill="#CDCCCC" />
    </symbol>
  </defs>
</svg>